<svg width="4011" height="1024" viewBox="0 0 4011 1024" fill="none" xmlns="http://www.w3.org/2000/svg">
<path d="M1222.72 446C1223.74 434.75 1221.02 425.943 1214.54 419.58C1208.06 413.102 1197.15 409.864 1181.81 409.864C1172.04 409.864 1163.86 411 1157.27 413.273C1150.79 415.545 1145.73 418.67 1142.1 422.648C1138.57 426.625 1136.36 431.227 1135.45 436.455C1134.43 440.545 1134.48 444.295 1135.62 447.705C1136.87 451 1139.2 454.011 1142.61 456.739C1146.13 459.466 1150.73 461.909 1156.41 464.068C1162.21 466.227 1169.09 468.159 1177.04 469.864L1204.31 476C1222.95 480.091 1238.57 485.489 1251.19 492.193C1263.91 498.784 1273.91 506.625 1281.19 515.716C1288.46 524.807 1293.23 534.977 1295.51 546.227C1297.89 557.477 1297.95 569.75 1295.68 583.045C1291.81 606 1282.89 625.432 1268.91 641.341C1254.94 657.25 1236.7 669.352 1214.2 677.648C1191.7 685.943 1165.68 690.091 1136.13 690.091C1105.9 690.091 1080.22 685.602 1059.09 676.625C1038.06 667.534 1022.84 653.67 1013.4 635.034C1004.09 616.284 1001.81 592.364 1006.59 563.273H1096.59C1095.22 573.955 1096.36 582.932 1099.99 590.205C1103.63 597.477 1109.48 602.989 1117.55 606.739C1125.62 610.489 1135.68 612.364 1147.72 612.364C1157.95 612.364 1166.7 611.114 1173.97 608.614C1181.24 606.114 1186.98 602.648 1191.19 598.216C1195.39 593.784 1197.95 588.727 1198.86 583.045C1199.77 577.818 1198.86 573.159 1196.13 569.068C1193.4 564.977 1188.46 561.284 1181.3 557.989C1174.14 554.693 1164.31 551.682 1151.81 548.955L1118.4 541.455C1088.74 534.636 1066.36 523.386 1051.24 507.705C1036.13 492.023 1030.79 470.545 1035.22 443.273C1038.86 421 1048.01 401.568 1062.66 384.977C1077.44 368.273 1096.19 355.318 1118.91 346.114C1141.76 336.795 1167.04 332.136 1194.77 332.136C1222.95 332.136 1246.53 336.852 1265.51 346.284C1284.6 355.716 1298.29 368.955 1306.59 386C1314.99 403.045 1317.27 423.045 1313.4 446H1222.72ZM1300.36 784.182L1360.7 424.182H1454.11L1446.61 469.864H1448.66C1453.43 461 1459.68 452.875 1467.41 445.489C1475.25 437.989 1484.45 432.023 1495.02 427.591C1505.7 423.045 1517.52 420.773 1530.48 420.773C1547.75 420.773 1563.38 425.375 1577.35 434.58C1591.33 443.784 1601.61 458.273 1608.2 478.045C1614.8 497.818 1615.48 523.5 1610.25 555.091C1605.25 585.318 1596.33 610.375 1583.49 630.261C1570.76 650.148 1555.76 664.977 1538.49 674.75C1521.33 684.523 1503.43 689.409 1484.8 689.409C1472.52 689.409 1461.9 687.42 1452.92 683.443C1443.94 679.352 1436.73 673.841 1431.27 666.909C1425.82 659.864 1422.07 651.909 1420.02 643.045H1417.98L1394.8 784.182H1300.36ZM1430.93 555.091C1428.89 567.818 1428.72 578.841 1430.42 588.159C1432.24 597.364 1435.82 604.523 1441.16 609.636C1446.61 614.636 1453.66 617.136 1462.3 617.136C1470.93 617.136 1478.66 614.693 1485.48 609.807C1492.3 604.807 1498.09 597.705 1502.86 588.5C1507.64 579.182 1511.16 568.045 1513.43 555.091C1515.48 542.136 1515.65 531.057 1513.94 521.852C1512.24 512.534 1508.77 505.432 1503.55 500.545C1498.32 495.545 1491.39 493.045 1482.75 493.045C1474.11 493.045 1466.22 495.545 1459.06 500.545C1452.01 505.432 1446.05 512.534 1441.16 521.852C1436.39 531.057 1432.98 542.136 1430.93 555.091ZM1627.76 686L1671.4 424.182H1765.49L1721.86 686H1627.76ZM1722.54 396.909C1709.81 396.909 1699.53 392.705 1691.68 384.295C1683.84 375.773 1680.95 365.659 1682.99 353.955C1685.04 342.023 1691.29 331.909 1701.74 323.614C1712.2 315.205 1723.79 311 1736.51 311C1749.36 311 1759.58 315.205 1767.2 323.614C1774.81 331.909 1777.65 342.023 1775.72 353.955C1773.9 365.659 1767.76 375.773 1757.31 384.295C1746.97 392.705 1735.38 396.909 1722.54 396.909ZM1769.8 686L1813.43 424.182H1904.8L1896.61 473.955H1899.34C1907.18 455.545 1917.01 442.08 1928.83 433.557C1940.65 425.034 1953.55 420.773 1967.52 420.773C1971.61 420.773 1975.53 421.114 1979.28 421.795C1983.15 422.364 1986.95 423.159 1990.7 424.182L1977.07 504.636C1972.64 502.932 1967.13 501.739 1960.53 501.057C1953.94 500.261 1948.09 499.864 1942.98 499.864C1933.89 499.864 1925.36 501.966 1917.41 506.17C1909.57 510.261 1902.86 516.057 1897.3 523.557C1891.84 530.943 1888.2 539.636 1886.39 549.636L1863.89 686H1769.8ZM1977.92 686L2021.56 424.182H2115.65L2072.01 686H1977.92ZM2072.69 396.909C2059.97 396.909 2049.68 392.705 2041.84 384.295C2034 375.773 2031.1 365.659 2033.15 353.955C2035.19 342.023 2041.44 331.909 2051.9 323.614C2062.35 315.205 2073.94 311 2086.67 311C2099.51 311 2109.74 315.205 2117.35 323.614C2124.97 331.909 2127.81 342.023 2125.88 353.955C2124.06 365.659 2117.92 375.773 2107.47 384.295C2097.13 392.705 2085.53 396.909 2072.69 396.909ZM2319.72 424.182L2308.13 492.364H2135.63L2147.22 424.182H2319.72ZM2190.86 361.455H2284.95L2245.07 601.795C2244.5 605.432 2244.61 608.5 2245.41 611C2246.2 613.386 2247.79 615.205 2250.18 616.455C2252.68 617.591 2255.97 618.159 2260.07 618.159C2262.79 618.159 2266.14 617.818 2270.12 617.136C2274.1 616.341 2277.11 615.773 2279.16 615.432L2281.88 681.568C2277.11 682.932 2270.69 684.466 2262.62 686.17C2254.67 687.989 2245.41 689.182 2234.84 689.75C2212.79 690.773 2194.84 688.443 2180.97 682.761C2167.22 677.08 2157.68 668.216 2152.34 656.17C2147.11 644.011 2146.2 628.841 2149.61 610.659L2190.86 361.455ZM2770.45 467.818H2675.68C2676.36 459.75 2675.9 452.477 2674.31 446C2672.72 439.523 2669.99 433.955 2666.13 429.295C2662.27 424.523 2657.21 420.886 2650.96 418.386C2644.71 415.886 2637.27 414.636 2628.63 414.636C2612.04 414.636 2597.21 418.784 2584.14 427.08C2571.07 435.261 2560.22 447.023 2551.59 462.364C2542.95 477.591 2536.81 495.773 2533.18 516.909C2529.99 537.364 2529.88 554.352 2532.84 567.875C2535.9 581.398 2541.87 591.511 2550.73 598.216C2559.71 604.92 2571.36 608.273 2585.68 608.273C2595.22 608.273 2603.97 607.136 2611.93 604.864C2619.99 602.591 2627.15 599.352 2633.4 595.148C2639.77 590.83 2645.16 585.716 2649.6 579.807C2654.14 573.784 2657.61 567.136 2659.99 559.864H2755.45C2751.81 574.636 2745.34 589.75 2736.02 605.205C2726.7 620.545 2714.65 634.693 2699.88 647.648C2685.11 660.489 2667.72 670.886 2647.72 678.841C2627.72 686.795 2605.22 690.773 2580.22 690.773C2547.49 690.773 2519.26 683.614 2495.51 669.295C2471.87 654.977 2454.71 634.068 2444.03 606.568C2433.46 579.068 2431.36 545.545 2437.72 506C2444.09 467.818 2456.64 435.83 2475.39 410.034C2494.14 384.239 2516.93 364.807 2543.74 351.739C2570.56 338.67 2599.09 332.136 2629.31 332.136C2652.15 332.136 2672.61 335.148 2690.68 341.17C2708.86 347.193 2724.14 356 2736.53 367.591C2749.03 379.068 2758.23 393.216 2764.14 410.034C2770.05 426.852 2772.15 446.114 2770.45 467.818ZM2898.33 538.727L2873.79 686H2779.7L2837.65 336.909H2928.33L2905.83 473.955H2908.56C2917.08 457.25 2929.01 444.239 2944.36 434.92C2959.7 425.489 2977.08 420.773 2996.51 420.773C3014.92 420.773 3030.26 424.977 3042.54 433.386C3054.81 441.795 3063.5 453.386 3068.62 468.159C3073.73 482.932 3074.7 499.864 3071.51 518.955L3043.56 686H2949.47L2974.01 538.727C2976.06 525.773 2974.41 515.602 2969.07 508.216C2963.84 500.83 2955.26 497.136 2943.33 497.136C2935.61 497.136 2928.56 498.841 2922.2 502.25C2915.95 505.545 2910.72 510.318 2906.51 516.568C2902.42 522.705 2899.7 530.091 2898.33 538.727ZM3214.1 690.773C3186.14 690.773 3162.96 685.432 3144.55 674.75C3126.14 663.955 3113.19 648.5 3105.69 628.386C3098.19 608.159 3096.83 583.955 3101.6 555.773C3106.14 528.727 3115.52 505.091 3129.72 484.864C3144.04 464.636 3162.05 448.898 3183.76 437.648C3205.58 426.398 3230.01 420.773 3257.05 420.773C3276.83 420.773 3294.16 423.841 3309.04 429.977C3324.04 436.114 3336.26 445.034 3345.69 456.739C3355.12 468.443 3361.49 482.591 3364.78 499.182C3368.19 515.659 3368.19 534.295 3364.78 555.091L3361.37 576.909H3127.51L3135.69 525.091H3282.96C3284.1 517.591 3283.36 511 3280.75 505.318C3278.25 499.523 3274.21 495.034 3268.64 491.852C3263.19 488.557 3256.6 486.909 3248.87 486.909C3241.14 486.909 3233.87 488.557 3227.05 491.852C3220.35 495.148 3214.61 499.75 3209.84 505.659C3205.18 511.568 3202.05 518.5 3200.46 526.455L3190.24 581C3188.87 589.409 3189.38 596.909 3191.77 603.5C3194.16 610.091 3198.3 615.261 3204.21 619.011C3210.12 622.761 3217.74 624.636 3227.05 624.636C3233.42 624.636 3239.44 623.784 3245.12 622.08C3250.92 620.261 3256.03 617.648 3260.46 614.239C3265.01 610.716 3268.64 606.455 3271.37 601.455H3357.28C3351.14 619.636 3341.43 635.432 3328.13 648.841C3314.95 662.136 3298.7 672.477 3279.38 679.864C3260.18 687.136 3238.42 690.773 3214.1 690.773ZM3649.31 509.409H3564.77C3565.22 503.955 3564.26 499.295 3561.87 495.432C3559.48 491.568 3556.13 488.614 3551.81 486.568C3547.61 484.523 3542.84 483.5 3537.49 483.5C3528.18 483.5 3519.71 485.602 3512.1 489.807C3504.48 493.898 3500.22 499.295 3499.31 506C3498.74 508.614 3499.6 511.057 3501.87 513.33C3504.14 515.602 3510.11 517.705 3519.77 519.636L3571.59 529.182C3597.49 533.955 3616.36 542.648 3628.18 555.261C3640.11 567.761 3644.43 584.295 3641.13 604.864C3638.06 622.705 3630.22 638.045 3617.61 650.886C3604.99 663.727 3588.97 673.614 3569.54 680.545C3550.22 687.364 3528.86 690.773 3505.45 690.773C3464.2 690.773 3433.29 682.534 3412.72 666.057C3392.27 649.58 3382.95 628.045 3384.77 601.455H3476.13C3476.36 609.977 3479.2 616.398 3484.65 620.716C3490.22 624.92 3497.61 627.136 3506.81 627.364C3516.81 627.705 3525.56 625.716 3533.06 621.398C3540.56 616.966 3544.77 611.455 3545.68 604.864C3546.02 601.114 3544.37 598.273 3540.73 596.341C3537.21 594.409 3530.45 592.477 3520.45 590.545L3475.45 582.364C3449.54 577.705 3430.68 568.386 3418.86 554.409C3407.04 540.318 3402.95 522.364 3406.59 500.545C3409.54 483.159 3416.59 468.557 3427.72 456.739C3438.97 444.92 3453.74 436 3472.04 429.977C3490.34 423.841 3511.47 420.773 3535.45 420.773C3574.65 420.773 3604.31 428.67 3624.43 444.466C3644.65 460.148 3652.95 481.795 3649.31 509.409ZM3931.5 509.409H3846.95C3847.41 503.955 3846.44 499.295 3844.06 495.432C3841.67 491.568 3838.32 488.614 3834 486.568C3829.8 484.523 3825.02 483.5 3819.68 483.5C3810.36 483.5 3801.9 485.602 3794.28 489.807C3786.67 493.898 3782.41 499.295 3781.5 506C3780.93 508.614 3781.78 511.057 3784.06 513.33C3786.33 515.602 3792.3 517.705 3801.95 519.636L3853.77 529.182C3879.68 533.955 3898.55 542.648 3910.36 555.261C3922.3 567.761 3926.61 584.295 3923.32 604.864C3920.25 622.705 3912.41 638.045 3899.8 650.886C3887.18 663.727 3871.16 673.614 3851.73 680.545C3832.41 687.364 3811.05 690.773 3787.64 690.773C3746.39 690.773 3715.48 682.534 3694.91 666.057C3674.45 649.58 3665.14 628.045 3666.95 601.455H3758.32C3758.55 609.977 3761.39 616.398 3766.84 620.716C3772.41 624.92 3779.8 627.136 3789 627.364C3799 627.705 3807.75 625.716 3815.25 621.398C3822.75 616.966 3826.95 611.455 3827.86 604.864C3828.2 601.114 3826.56 598.273 3822.92 596.341C3819.4 594.409 3812.64 592.477 3802.64 590.545L3757.64 582.364C3731.73 577.705 3712.86 568.386 3701.05 554.409C3689.23 540.318 3685.14 522.364 3688.77 500.545C3691.73 483.159 3698.77 468.557 3709.91 456.739C3721.16 444.92 3735.93 436 3754.23 429.977C3772.52 423.841 3793.66 420.773 3817.64 420.773C3856.84 420.773 3886.5 428.67 3906.61 444.466C3926.84 460.148 3935.14 481.795 3931.5 509.409Z" fill="black"/>
<g filter="url(#filter0_ddi_44_27)">
<ellipse cx="547" cy="627.319" rx="310" ry="159.366" fill="black"/>
<path d="M856 627.319C856 670.759 821.729 710.339 765.746 739.119C709.815 767.872 632.479 785.686 547 785.686C461.521 785.686 384.185 767.872 328.254 739.119C272.271 710.339 238 670.759 238 627.319C238 583.88 272.271 544.3 328.254 515.52C384.185 486.767 461.521 468.953 547 468.953C632.479 468.953 709.815 486.767 765.746 515.52C821.729 544.3 856 583.88 856 627.319Z" stroke="white" stroke-opacity="0.5" stroke-width="2"/>
</g>
<g filter="url(#filter1_ddi_44_27)">
<ellipse cx="547" cy="556.732" rx="310" ry="159.366" fill="white"/>
</g>
<g filter="url(#filter2_ddi_44_27)">
<ellipse cx="547" cy="467.953" rx="310" ry="159.366" fill="black"/>
<path d="M856 467.953C856 511.393 821.729 550.973 765.746 579.753C709.815 608.506 632.479 626.319 547 626.319C461.521 626.319 384.185 608.506 328.254 579.753C272.271 550.973 238 511.393 238 467.953C238 424.514 272.271 384.933 328.254 356.154C384.185 327.401 461.521 309.587 547 309.587C632.479 309.587 709.815 327.401 765.746 356.154C821.729 384.933 856 424.514 856 467.953Z" stroke="white" stroke-opacity="0.5" stroke-width="2"/>
</g>
<g filter="url(#filter3_ddi_44_27)">
<ellipse cx="547" cy="397.366" rx="310" ry="159.366" fill="white"/>
</g>
<defs>
<filter id="filter0_ddi_44_27" x="223" y="457.953" width="662" height="361.732" filterUnits="userSpaceOnUse" color-interpolation-filters="sRGB">
<feFlood flood-opacity="0" result="BackgroundImageFix"/>
<feColorMatrix in="SourceAlpha" type="matrix" values="0 0 0 0 0 0 0 0 0 0 0 0 0 0 0 0 0 0 127 0" result="hardAlpha"/>
<feOffset dx="20" dy="25"/>
<feGaussianBlur stdDeviation="4"/>
<feColorMatrix type="matrix" values="0 0 0 0 0 0 0 0 0 0 0 0 0 0 0 0 0 0 0.15 0"/>
<feBlend mode="normal" in2="BackgroundImageFix" result="effect1_dropShadow_44_27"/>
<feColorMatrix in="SourceAlpha" type="matrix" values="0 0 0 0 0 0 0 0 0 0 0 0 0 0 0 0 0 0 127 0" result="hardAlpha"/>
<feOffset dy="4"/>
<feGaussianBlur stdDeviation="2"/>
<feComposite in2="hardAlpha" operator="out"/>
<feColorMatrix type="matrix" values="0 0 0 0 0 0 0 0 0 0 0 0 0 0 0 0 0 0 0.25 0"/>
<feBlend mode="normal" in2="effect1_dropShadow_44_27" result="effect2_dropShadow_44_27"/>
<feBlend mode="normal" in="SourceGraphic" in2="effect2_dropShadow_44_27" result="shape"/>
<feColorMatrix in="SourceAlpha" type="matrix" values="0 0 0 0 0 0 0 0 0 0 0 0 0 0 0 0 0 0 127 0" result="hardAlpha"/>
<feMorphology radius="4" operator="erode" in="SourceAlpha" result="effect3_innerShadow_44_27"/>
<feOffset dx="-20" dy="-10"/>
<feGaussianBlur stdDeviation="5"/>
<feComposite in2="hardAlpha" operator="arithmetic" k2="-1" k3="1"/>
<feColorMatrix type="matrix" values="0 0 0 0 0 0 0 0 0 0 0 0 0 0 0 0 0 0 0.1 0"/>
<feBlend mode="normal" in2="shape" result="effect3_innerShadow_44_27"/>
</filter>
<filter id="filter1_ddi_44_27" x="223" y="387.366" width="662" height="361.732" filterUnits="userSpaceOnUse" color-interpolation-filters="sRGB">
<feFlood flood-opacity="0" result="BackgroundImageFix"/>
<feColorMatrix in="SourceAlpha" type="matrix" values="0 0 0 0 0 0 0 0 0 0 0 0 0 0 0 0 0 0 127 0" result="hardAlpha"/>
<feOffset dx="20" dy="25"/>
<feGaussianBlur stdDeviation="4"/>
<feColorMatrix type="matrix" values="0 0 0 0 0 0 0 0 0 0 0 0 0 0 0 0 0 0 0.15 0"/>
<feBlend mode="normal" in2="BackgroundImageFix" result="effect1_dropShadow_44_27"/>
<feColorMatrix in="SourceAlpha" type="matrix" values="0 0 0 0 0 0 0 0 0 0 0 0 0 0 0 0 0 0 127 0" result="hardAlpha"/>
<feOffset dy="4"/>
<feGaussianBlur stdDeviation="2"/>
<feComposite in2="hardAlpha" operator="out"/>
<feColorMatrix type="matrix" values="0 0 0 0 0 0 0 0 0 0 0 0 0 0 0 0 0 0 0.25 0"/>
<feBlend mode="normal" in2="effect1_dropShadow_44_27" result="effect2_dropShadow_44_27"/>
<feBlend mode="normal" in="SourceGraphic" in2="effect2_dropShadow_44_27" result="shape"/>
<feColorMatrix in="SourceAlpha" type="matrix" values="0 0 0 0 0 0 0 0 0 0 0 0 0 0 0 0 0 0 127 0" result="hardAlpha"/>
<feMorphology radius="4" operator="erode" in="SourceAlpha" result="effect3_innerShadow_44_27"/>
<feOffset dx="-20" dy="-10"/>
<feGaussianBlur stdDeviation="5"/>
<feComposite in2="hardAlpha" operator="arithmetic" k2="-1" k3="1"/>
<feColorMatrix type="matrix" values="0 0 0 0 0 0 0 0 0 0 0 0 0 0 0 0 0 0 0.1 0"/>
<feBlend mode="normal" in2="shape" result="effect3_innerShadow_44_27"/>
</filter>
<filter id="filter2_ddi_44_27" x="223" y="298.587" width="662" height="361.732" filterUnits="userSpaceOnUse" color-interpolation-filters="sRGB">
<feFlood flood-opacity="0" result="BackgroundImageFix"/>
<feColorMatrix in="SourceAlpha" type="matrix" values="0 0 0 0 0 0 0 0 0 0 0 0 0 0 0 0 0 0 127 0" result="hardAlpha"/>
<feOffset dx="20" dy="25"/>
<feGaussianBlur stdDeviation="4"/>
<feColorMatrix type="matrix" values="0 0 0 0 0 0 0 0 0 0 0 0 0 0 0 0 0 0 0.15 0"/>
<feBlend mode="normal" in2="BackgroundImageFix" result="effect1_dropShadow_44_27"/>
<feColorMatrix in="SourceAlpha" type="matrix" values="0 0 0 0 0 0 0 0 0 0 0 0 0 0 0 0 0 0 127 0" result="hardAlpha"/>
<feOffset dy="4"/>
<feGaussianBlur stdDeviation="2"/>
<feComposite in2="hardAlpha" operator="out"/>
<feColorMatrix type="matrix" values="0 0 0 0 0 0 0 0 0 0 0 0 0 0 0 0 0 0 0.25 0"/>
<feBlend mode="normal" in2="effect1_dropShadow_44_27" result="effect2_dropShadow_44_27"/>
<feBlend mode="normal" in="SourceGraphic" in2="effect2_dropShadow_44_27" result="shape"/>
<feColorMatrix in="SourceAlpha" type="matrix" values="0 0 0 0 0 0 0 0 0 0 0 0 0 0 0 0 0 0 127 0" result="hardAlpha"/>
<feMorphology radius="4" operator="erode" in="SourceAlpha" result="effect3_innerShadow_44_27"/>
<feOffset dx="-20" dy="-10"/>
<feGaussianBlur stdDeviation="5"/>
<feComposite in2="hardAlpha" operator="arithmetic" k2="-1" k3="1"/>
<feColorMatrix type="matrix" values="0 0 0 0 0 0 0 0 0 0 0 0 0 0 0 0 0 0 0.1 0"/>
<feBlend mode="normal" in2="shape" result="effect3_innerShadow_44_27"/>
</filter>
<filter id="filter3_ddi_44_27" x="223" y="228" width="662" height="361.732" filterUnits="userSpaceOnUse" color-interpolation-filters="sRGB">
<feFlood flood-opacity="0" result="BackgroundImageFix"/>
<feColorMatrix in="SourceAlpha" type="matrix" values="0 0 0 0 0 0 0 0 0 0 0 0 0 0 0 0 0 0 127 0" result="hardAlpha"/>
<feOffset dx="20" dy="25"/>
<feGaussianBlur stdDeviation="4"/>
<feColorMatrix type="matrix" values="0 0 0 0 0 0 0 0 0 0 0 0 0 0 0 0 0 0 0.15 0"/>
<feBlend mode="normal" in2="BackgroundImageFix" result="effect1_dropShadow_44_27"/>
<feColorMatrix in="SourceAlpha" type="matrix" values="0 0 0 0 0 0 0 0 0 0 0 0 0 0 0 0 0 0 127 0" result="hardAlpha"/>
<feOffset dy="4"/>
<feGaussianBlur stdDeviation="2"/>
<feComposite in2="hardAlpha" operator="out"/>
<feColorMatrix type="matrix" values="0 0 0 0 0 0 0 0 0 0 0 0 0 0 0 0 0 0 0.25 0"/>
<feBlend mode="normal" in2="effect1_dropShadow_44_27" result="effect2_dropShadow_44_27"/>
<feBlend mode="normal" in="SourceGraphic" in2="effect2_dropShadow_44_27" result="shape"/>
<feColorMatrix in="SourceAlpha" type="matrix" values="0 0 0 0 0 0 0 0 0 0 0 0 0 0 0 0 0 0 127 0" result="hardAlpha"/>
<feMorphology radius="4" operator="erode" in="SourceAlpha" result="effect3_innerShadow_44_27"/>
<feOffset dx="-20" dy="-10"/>
<feGaussianBlur stdDeviation="5"/>
<feComposite in2="hardAlpha" operator="arithmetic" k2="-1" k3="1"/>
<feColorMatrix type="matrix" values="0 0 0 0 0 0 0 0 0 0 0 0 0 0 0 0 0 0 0.1 0"/>
<feBlend mode="normal" in2="shape" result="effect3_innerShadow_44_27"/>
</filter>
</defs>
</svg>
